<svg width="183" height="48" viewBox="0 0 183 48" fill="none" xmlns="http://www.w3.org/2000/svg">
    <path d="M8.71202 9.276C9.59202 9.276 10.36 9.104 11.016 8.76C11.672 8.416 12.184 7.936 12.552 7.32C12.92 6.704 13.104 5.988 13.104 5.172C13.104 4.396 12.844 3.808 12.324 3.408C11.812 3.008 10.924 2.808 9.66002 2.808H6.68402L7.04402 1.8H10.248C11.384 1.8 12.3 1.928 12.996 2.184C13.692 2.432 14.2 2.8 14.52 3.288C14.84 3.776 15 4.376 15 5.088C15 5.952 14.788 6.736 14.364 7.44C13.94 8.144 13.32 8.716 12.504 9.156C11.688 9.588 10.688 9.84 9.50402 9.912V9.852C10.024 9.876 10.436 9.98 10.74 10.164C11.044 10.34 11.284 10.608 11.46 10.968C11.636 11.328 11.792 11.792 11.928 12.36L12.744 15.648C12.872 16.176 13.008 16.564 13.152 16.812C13.296 17.06 13.472 17.22 13.68 17.292C13.888 17.364 14.156 17.4 14.484 17.4L14.304 18C13.672 18.04 13.16 18.048 12.768 18.024C12.384 18 12.08 17.924 11.856 17.796C11.632 17.66 11.456 17.452 11.328 17.172C11.2 16.892 11.08 16.512 10.968 16.032L10.02 11.94C9.91602 11.468 9.78802 11.116 9.63602 10.884C9.48402 10.644 9.30002 10.484 9.08402 10.404C8.86802 10.324 8.59202 10.284 8.25602 10.284H4.44002L4.72802 9.276H8.71202ZM3.97202 17.04L5.67602 17.568L5.53202 18H1.75685e-05L0.132018 17.568L2.10002 17.004L6.42002 2.76L4.71602 2.232L4.86002 1.8H8.59202L3.97202 17.04ZM18.4543 2.784L16.9423 2.232L17.0743 1.8H22.6063L22.4743 2.232L20.3263 2.76L21.5383 16.176H20.8303L29.5423 2.772L27.8743 2.232L27.9943 1.8H32.8663L32.7463 2.232L30.7663 2.772L20.5063 18.24H19.9783L18.4543 2.784ZM45.9889 3.684C45.4929 3.26 45.0129 2.948 44.5489 2.748C44.0849 2.548 43.4889 2.448 42.7609 2.448C42.0329 2.448 41.4089 2.568 40.8889 2.808C40.3769 3.048 39.9849 3.4 39.7129 3.864C39.4489 4.32 39.3169 4.876 39.3169 5.532C39.3169 6.196 39.4849 6.724 39.8209 7.116C40.1569 7.508 40.5809 7.84 41.0929 8.112C41.6129 8.384 42.1249 8.66 42.6289 8.94C43.1409 9.212 43.6129 9.528 44.0449 9.888C44.4849 10.24 44.8369 10.68 45.1009 11.208C45.3729 11.728 45.5089 12.392 45.5089 13.2C45.5089 14.184 45.2489 15.06 44.7289 15.828C44.2169 16.588 43.4929 17.18 42.5569 17.604C41.6209 18.028 40.5209 18.24 39.2569 18.24C38.4729 18.24 37.7929 18.184 37.2169 18.072C36.6409 17.96 36.0449 17.756 35.4289 17.46L35.2849 13.332H35.7649L37.5889 17.4L36.9889 16.872C37.3809 17.04 37.7489 17.16 38.0929 17.232C38.4449 17.296 38.8329 17.328 39.2569 17.328C40.2409 17.328 41.0729 17.184 41.7529 16.896C42.4329 16.608 42.9489 16.192 43.3009 15.648C43.6609 15.104 43.8409 14.456 43.8409 13.704C43.8409 13.064 43.7209 12.54 43.4809 12.132C43.2409 11.716 42.9289 11.372 42.5449 11.1C42.1689 10.828 41.7649 10.596 41.3329 10.404C40.9089 10.204 40.5129 10 40.1449 9.792C39.6569 9.512 39.2289 9.216 38.8609 8.904C38.4929 8.592 38.2089 8.216 38.0089 7.776C37.8089 7.336 37.7089 6.796 37.7089 6.156C37.7089 5.276 37.9289 4.492 38.3689 3.804C38.8089 3.108 39.4409 2.56 40.2649 2.16C41.0889 1.76 42.0729 1.56 43.2169 1.56C43.8009 1.56 44.3369 1.608 44.8249 1.704C45.3209 1.792 45.8649 1.96 46.4569 2.208L45.6889 2.136L47.4049 1.104H47.6089L46.6129 6.66H46.1329L45.3409 2.628L45.9889 3.684ZM47.5136 17.508L50.7056 8.64L51.0416 8.904C50.7936 8.896 50.5016 8.96 50.1656 9.096C49.8296 9.224 49.4776 9.424 49.1096 9.696C48.7416 9.96 48.3776 10.292 48.0176 10.692L47.6816 10.38C48.2496 9.572 48.7696 8.948 49.2416 8.508C49.7136 8.06 50.1536 7.748 50.5616 7.572C50.9696 7.396 51.3576 7.308 51.7256 7.308C52.0536 7.308 52.2896 7.372 52.4336 7.5C52.5776 7.628 52.6096 7.808 52.5296 8.04L49.3376 17.124L49.1216 16.668C49.3776 16.708 49.6736 16.68 50.0096 16.584C50.3456 16.48 50.7056 16.308 51.0896 16.068C51.4816 15.828 51.8816 15.52 52.2896 15.144L52.6016 15.492C52.0256 16.18 51.4936 16.728 51.0056 17.136C50.5256 17.536 50.0816 17.82 49.6736 17.988C49.2656 18.156 48.8816 18.24 48.5216 18.24C48.0736 18.24 47.7696 18.176 47.6096 18.048C47.4576 17.928 47.4256 17.748 47.5136 17.508ZM51.5936 2.34C51.5936 2.084 51.6496 1.856 51.7616 1.656C51.8816 1.448 52.0456 1.284 52.2536 1.164C52.4616 1.044 52.7016 0.983999 52.9736 0.983999C53.3896 0.983999 53.7216 1.116 53.9696 1.38C54.2256 1.636 54.3536 1.956 54.3536 2.34C54.3536 2.604 54.2936 2.84 54.1736 3.048C54.0616 3.248 53.9016 3.412 53.6936 3.54C53.4936 3.66 53.2536 3.72 52.9736 3.72C52.5656 3.72 52.2336 3.588 51.9776 3.324C51.7216 3.06 51.5936 2.732 51.5936 2.34ZM54.3058 10.98L53.9098 10.812C54.2618 9.916 54.6378 9.216 55.0378 8.712C55.4378 8.2 55.8578 7.84 56.2978 7.632C56.7378 7.424 57.1778 7.32 57.6178 7.32C57.7778 7.32 57.9298 7.332 58.0738 7.356C58.2258 7.372 58.3738 7.396 58.5178 7.428C58.6698 7.46 58.8178 7.5 58.9618 7.548L57.5098 12.276H57.4258C57.8178 11.596 58.2218 10.956 58.6378 10.356C59.0618 9.756 59.4978 9.232 59.9458 8.784C60.3938 8.336 60.8538 7.984 61.3258 7.728C61.7978 7.472 62.2738 7.344 62.7538 7.344C63.4258 7.344 63.8898 7.488 64.1458 7.776C64.4018 8.064 64.5298 8.436 64.5298 8.892C64.5298 9.148 64.4898 9.436 64.4098 9.756C64.3298 10.068 64.2138 10.424 64.0618 10.824L61.6138 17.124V16.692C61.8698 16.7 62.1618 16.648 62.4898 16.536C62.8178 16.416 63.1658 16.24 63.5338 16.008C63.9018 15.776 64.2658 15.488 64.6258 15.144L64.9618 15.48C64.3858 16.168 63.8498 16.716 63.3538 17.124C62.8658 17.532 62.4178 17.82 62.0098 17.988C61.6018 18.156 61.2138 18.24 60.8458 18.24C60.3258 18.24 60.0058 18.16 59.8858 18C59.7658 17.848 59.7938 17.548 59.9698 17.1L62.5498 10.488C62.6298 10.28 62.6938 10.092 62.7418 9.924C62.7898 9.748 62.8138 9.592 62.8138 9.456C62.8138 9.256 62.7458 9.096 62.6098 8.976C62.4818 8.848 62.2458 8.784 61.9018 8.784C61.5098 8.784 61.0738 8.948 60.5938 9.276C60.1218 9.604 59.6498 10.052 59.1778 10.62C58.7058 11.188 58.2698 11.832 57.8698 12.552C57.4778 13.272 57.1618 14.028 56.9218 14.82L55.9258 18H54.2698L57.0658 8.892C57.0418 8.876 57.0138 8.864 56.9818 8.856C56.9578 8.84 56.9258 8.832 56.8858 8.832C56.6138 8.832 56.3378 8.892 56.0578 9.012C55.7858 9.132 55.5058 9.348 55.2178 9.66C54.9298 9.972 54.6258 10.412 54.3058 10.98ZM75.514 9.072C75.354 9.072 75.21 9.036 75.082 8.964C74.962 8.884 74.83 8.792 74.686 8.688C74.55 8.584 74.386 8.48 74.194 8.376C74.01 8.264 73.774 8.172 73.486 8.1C73.198 8.02 72.838 7.98 72.406 7.98L72.142 7.452C72.798 7.54 73.35 7.568 73.798 7.536C74.254 7.504 74.65 7.456 74.986 7.392C75.33 7.328 75.662 7.296 75.982 7.296C76.182 7.296 76.33 7.344 76.426 7.44C76.53 7.536 76.582 7.676 76.582 7.86C76.582 8.044 76.55 8.208 76.486 8.352C76.43 8.496 76.35 8.624 76.246 8.736C76.15 8.84 76.038 8.924 75.91 8.988C75.782 9.044 75.65 9.072 75.514 9.072ZM69.514 14.244C69.802 14.244 70.086 14.172 70.366 14.028C70.646 13.876 70.91 13.664 71.158 13.392C71.414 13.112 71.638 12.78 71.83 12.396C72.022 12.012 72.174 11.584 72.286 11.112C72.406 10.632 72.466 10.12 72.466 9.576C72.466 9.024 72.37 8.628 72.178 8.388C71.986 8.14 71.718 8.016 71.374 8.016C71.094 8.016 70.81 8.092 70.522 8.244C70.242 8.388 69.974 8.6 69.718 8.88C69.47 9.152 69.25 9.484 69.058 9.876C68.866 10.26 68.714 10.688 68.602 11.16C68.49 11.632 68.434 12.14 68.434 12.684C68.434 13.236 68.526 13.636 68.71 13.884C68.902 14.124 69.17 14.244 69.514 14.244ZM71.494 7.308C72.046 7.308 72.514 7.424 72.898 7.656C73.29 7.888 73.586 8.212 73.786 8.628C73.994 9.036 74.098 9.52 74.098 10.08C74.098 10.728 73.97 11.348 73.714 11.94C73.466 12.524 73.122 13.044 72.682 13.5C72.25 13.948 71.75 14.304 71.182 14.568C70.622 14.824 70.026 14.952 69.394 14.952C68.842 14.952 68.374 14.84 67.99 14.616C67.606 14.384 67.31 14.06 67.102 13.644C66.894 13.228 66.79 12.744 66.79 12.192C66.79 11.544 66.914 10.928 67.162 10.344C67.418 9.752 67.762 9.228 68.194 8.772C68.634 8.316 69.134 7.96 69.694 7.704C70.262 7.44 70.862 7.308 71.494 7.308ZM69.166 24.276C68.39 24.276 67.694 24.212 67.078 24.084C66.47 23.964 65.954 23.784 65.53 23.544C65.106 23.304 64.786 23.008 64.57 22.656C64.346 22.312 64.234 21.92 64.234 21.48C64.234 20.968 64.406 20.52 64.75 20.136C65.086 19.752 65.594 19.432 66.274 19.176C66.954 18.92 67.806 18.732 68.83 18.612H69.85V18.9C69.218 18.916 68.65 18.984 68.146 19.104C67.65 19.232 67.222 19.4 66.862 19.608C66.51 19.816 66.242 20.06 66.058 20.34C65.874 20.628 65.782 20.944 65.782 21.288C65.782 21.752 65.906 22.152 66.154 22.488C66.41 22.824 66.79 23.084 67.294 23.268C67.798 23.46 68.426 23.556 69.178 23.556C69.946 23.556 70.574 23.456 71.062 23.256C71.558 23.064 71.922 22.812 72.154 22.5C72.394 22.188 72.514 21.856 72.514 21.504C72.514 21.184 72.434 20.9 72.274 20.652C72.122 20.404 71.886 20.18 71.566 19.98C71.246 19.788 70.842 19.604 70.354 19.428C69.874 19.252 69.31 19.072 68.662 18.888C68.07 18.72 67.614 18.52 67.294 18.288C66.982 18.056 66.766 17.808 66.646 17.544C66.534 17.28 66.478 17.016 66.478 16.752C66.478 16.416 66.57 16.108 66.754 15.828C66.946 15.548 67.222 15.296 67.582 15.072C67.95 14.84 68.386 14.652 68.89 14.508L69.382 14.76C68.878 14.84 68.494 14.992 68.23 15.216C67.974 15.432 67.846 15.668 67.846 15.924C67.846 16.052 67.874 16.18 67.93 16.308C67.994 16.428 68.11 16.552 68.278 16.68C68.446 16.808 68.686 16.944 68.998 17.088C69.318 17.224 69.734 17.38 70.246 17.556C71.206 17.884 71.958 18.22 72.502 18.564C73.046 18.908 73.426 19.272 73.642 19.656C73.866 20.048 73.978 20.488 73.978 20.976C73.978 21.448 73.866 21.884 73.642 22.284C73.426 22.684 73.106 23.032 72.682 23.328C72.266 23.624 71.762 23.856 71.17 24.024C70.578 24.192 69.91 24.276 69.166 24.276ZM87.4888 2.808L87.9448 1.8H91.2928C92.2608 1.8 93.0408 1.944 93.6328 2.232C94.2248 2.512 94.6568 2.892 94.9288 3.372C95.2008 3.844 95.3368 4.36 95.3368 4.92C95.3368 5.664 95.1568 6.36 94.7968 7.008C94.4448 7.656 93.9168 8.196 93.2128 8.628C92.5168 9.06 91.6528 9.324 90.6208 9.42L90.5368 9.24C91.6888 9.32 92.5688 9.664 93.1768 10.272C93.7848 10.88 94.0888 11.624 94.0888 12.504C94.0888 13.416 93.8288 14.296 93.3088 15.144C92.7968 15.984 92.0288 16.672 91.0048 17.208C89.9888 17.736 88.7128 18 87.1768 18H83.0008L83.2408 16.992H86.7688C87.8968 16.992 88.8528 16.8 89.6368 16.416C90.4208 16.032 91.0208 15.488 91.4368 14.784C91.8528 14.08 92.0608 13.264 92.0608 12.336C92.0608 11.592 91.8208 11 91.3408 10.56C90.8688 10.12 90.0968 9.9 89.0248 9.9H85.3528L85.6528 8.904H89.3848C90.2248 8.904 90.9528 8.732 91.5688 8.388C92.1928 8.044 92.6728 7.576 93.0088 6.984C93.3528 6.392 93.5248 5.728 93.5248 4.992C93.5248 4.52 93.4208 4.12 93.2128 3.792C93.0128 3.464 92.7048 3.22 92.2888 3.06C91.8808 2.892 91.3688 2.808 90.7528 2.808H87.4888ZM86.5408 2.856L84.8968 2.244L85.0288 1.8H88.7488L83.7928 18H80.0968L80.2288 17.556L82.2328 16.944L86.5408 2.856ZM101.31 8.076C100.83 8.076 100.394 8.224 100.002 8.52C99.6178 8.808 99.2778 9.196 98.9818 9.684C98.6938 10.164 98.4498 10.696 98.2498 11.28C98.0578 11.856 97.9098 12.432 97.8058 13.008C97.7018 13.584 97.6498 14.108 97.6498 14.58C97.6498 15.412 97.8138 16 98.1418 16.344C98.4698 16.688 98.8978 16.86 99.4258 16.86C99.8018 16.86 100.154 16.792 100.482 16.656C100.81 16.52 101.13 16.284 101.442 15.948C101.754 15.612 102.062 15.14 102.366 14.532H102.978C102.57 15.484 102.162 16.232 101.754 16.776C101.354 17.312 100.922 17.692 100.458 17.916C99.9938 18.132 99.4618 18.24 98.8618 18.24C98.2538 18.24 97.7258 18.124 97.2778 17.892C96.8378 17.652 96.4938 17.3 96.2458 16.836C96.0058 16.364 95.8858 15.788 95.8858 15.108C95.8858 14.268 95.9858 13.46 96.1858 12.684C96.3858 11.908 96.6658 11.196 97.0258 10.548C97.3938 9.9 97.8178 9.332 98.2978 8.844C98.7778 8.356 99.3018 7.98 99.8698 7.716C100.438 7.444 101.026 7.308 101.634 7.308C102.194 7.308 102.65 7.404 103.002 7.596C103.354 7.788 103.61 8.044 103.77 8.364C103.938 8.676 104.022 9.016 104.022 9.384C104.022 9.728 103.95 10.072 103.806 10.416C103.662 10.752 103.474 11.028 103.242 11.244C102.802 11.428 102.35 11.612 101.886 11.796C101.422 11.98 100.946 12.164 100.458 12.348C99.9698 12.524 99.4778 12.696 98.9818 12.864C98.4858 13.032 97.9898 13.196 97.4938 13.356L97.5298 12.54C98.3138 12.316 98.9898 12.096 99.5578 11.88C100.126 11.656 100.594 11.436 100.962 11.22C101.338 11.004 101.63 10.788 101.838 10.572C102.054 10.348 102.206 10.124 102.294 9.9C102.39 9.676 102.438 9.448 102.438 9.216C102.438 8.984 102.394 8.784 102.306 8.616C102.218 8.448 102.09 8.316 101.922 8.22C101.762 8.124 101.558 8.076 101.31 8.076ZM105.282 10.98L104.886 10.812C105.238 9.916 105.614 9.216 106.014 8.712C106.414 8.2 106.834 7.84 107.274 7.632C107.714 7.424 108.154 7.32 108.594 7.32C108.754 7.32 108.906 7.332 109.05 7.356C109.202 7.372 109.35 7.396 109.494 7.428C109.646 7.46 109.794 7.5 109.938 7.548L108.486 12.276H108.402C108.794 11.596 109.198 10.956 109.614 10.356C110.038 9.756 110.474 9.232 110.922 8.784C111.37 8.336 111.83 7.984 112.302 7.728C112.774 7.472 113.25 7.344 113.73 7.344C114.402 7.344 114.866 7.488 115.122 7.776C115.378 8.064 115.506 8.436 115.506 8.892C115.506 9.148 115.466 9.436 115.386 9.756C115.306 10.068 115.19 10.424 115.038 10.824L112.59 17.124V16.692C112.846 16.7 113.138 16.648 113.466 16.536C113.794 16.416 114.142 16.24 114.51 16.008C114.878 15.776 115.242 15.488 115.602 15.144L115.938 15.48C115.362 16.168 114.826 16.716 114.33 17.124C113.842 17.532 113.394 17.82 112.986 17.988C112.578 18.156 112.19 18.24 111.822 18.24C111.302 18.24 110.982 18.16 110.862 18C110.742 17.848 110.77 17.548 110.946 17.1L113.526 10.488C113.606 10.28 113.67 10.092 113.718 9.924C113.766 9.748 113.79 9.592 113.79 9.456C113.79 9.256 113.722 9.096 113.586 8.976C113.458 8.848 113.222 8.784 112.878 8.784C112.486 8.784 112.05 8.948 111.57 9.276C111.098 9.604 110.626 10.052 110.154 10.62C109.682 11.188 109.246 11.832 108.846 12.552C108.454 13.272 108.138 14.028 107.898 14.82L106.902 18H105.246L108.042 8.892C108.018 8.876 107.99 8.864 107.958 8.856C107.934 8.84 107.902 8.832 107.862 8.832C107.59 8.832 107.314 8.892 107.034 9.012C106.762 9.132 106.482 9.348 106.194 9.66C105.906 9.972 105.602 10.412 105.282 10.98ZM122.219 8.184C121.755 8.184 121.323 8.38 120.923 8.772C120.531 9.164 120.187 9.68 119.891 10.32C119.595 10.952 119.367 11.644 119.207 12.396C119.047 13.14 118.967 13.868 118.967 14.58C118.967 15.412 119.095 16 119.351 16.344C119.607 16.688 119.995 16.86 120.515 16.86C120.859 16.86 121.191 16.788 121.511 16.644C121.839 16.5 122.167 16.26 122.495 15.924C122.823 15.58 123.143 15.116 123.455 14.532H124.043C123.619 15.484 123.195 16.232 122.771 16.776C122.355 17.312 121.919 17.692 121.463 17.916C121.007 18.132 120.507 18.24 119.963 18.24C119.083 18.24 118.399 17.984 117.911 17.472C117.431 16.952 117.191 16.164 117.191 15.108C117.191 14.044 117.347 13.04 117.659 12.096C117.979 11.152 118.411 10.324 118.955 9.612C119.507 8.892 120.143 8.328 120.863 7.92C121.583 7.512 122.339 7.308 123.131 7.308C123.851 7.308 124.387 7.464 124.739 7.776C125.091 8.08 125.267 8.436 125.267 8.844C125.267 9.164 125.171 9.408 124.979 9.576C124.795 9.744 124.551 9.832 124.247 9.84C124.103 9.848 123.959 9.768 123.815 9.6C123.671 9.432 123.527 9.232 123.383 9C123.247 8.776 123.083 8.584 122.891 8.424C122.699 8.264 122.475 8.184 122.219 8.184ZM131.541 7.308C132.189 7.308 132.741 7.448 133.197 7.728C133.653 8 134.005 8.396 134.253 8.916C134.501 9.436 134.625 10.068 134.625 10.812C134.625 11.764 134.477 12.684 134.181 13.572C133.893 14.46 133.485 15.256 132.957 15.96C132.437 16.656 131.829 17.212 131.133 17.628C130.445 18.036 129.697 18.24 128.889 18.24C128.249 18.24 127.697 18.104 127.233 17.832C126.777 17.552 126.425 17.152 126.177 16.632C125.929 16.104 125.805 15.472 125.805 14.736C125.805 13.776 125.949 12.856 126.237 11.976C126.533 11.088 126.941 10.296 127.461 9.6C127.989 8.896 128.597 8.34 129.285 7.932C129.981 7.516 130.733 7.308 131.541 7.308ZM128.913 17.484C129.329 17.484 129.733 17.34 130.125 17.052C130.517 16.764 130.881 16.376 131.217 15.888C131.553 15.392 131.849 14.836 132.105 14.22C132.361 13.596 132.561 12.944 132.705 12.264C132.849 11.584 132.921 10.92 132.921 10.272C132.921 9.52 132.809 8.964 132.585 8.604C132.361 8.244 132.005 8.064 131.517 8.064C131.101 8.064 130.697 8.208 130.305 8.496C129.913 8.784 129.549 9.172 129.213 9.66C128.877 10.148 128.581 10.704 128.325 11.328C128.069 11.952 127.869 12.604 127.725 13.284C127.581 13.964 127.509 14.628 127.509 15.276C127.509 16.02 127.621 16.576 127.845 16.944C128.069 17.304 128.425 17.484 128.913 17.484ZM16.9005 40.992C18.0365 40.992 19.0805 40.856 20.0325 40.584C20.9925 40.312 21.8485 39.92 22.6005 39.408C23.3525 38.888 23.9885 38.26 24.5085 37.524C25.0285 36.788 25.4245 35.956 25.6965 35.028C25.9765 34.092 26.1165 33.068 26.1165 31.956C26.1165 30.844 25.9045 29.908 25.4805 29.148C25.0645 28.38 24.4205 27.8 23.5485 27.408C22.6765 27.008 21.5645 26.808 20.2125 26.808H17.4405L17.7645 25.8H20.7885C22.4605 25.8 23.8405 26.036 24.9285 26.508C26.0245 26.98 26.8405 27.68 27.3765 28.608C27.9205 29.528 28.1925 30.68 28.1925 32.064C28.1925 33.432 27.9445 34.72 27.4485 35.928C26.9605 37.128 26.2365 38.184 25.2765 39.096C24.3165 40 23.1325 40.712 21.7245 41.232C20.3245 41.744 18.7085 42 16.8765 42H12.8085L13.1445 40.992H16.9005ZM16.7325 26.76L15.0285 26.232L15.1725 25.8H18.9045L13.9965 42H10.3125L10.4445 41.568L12.4125 41.004L16.7325 26.76ZM34.4426 32.076C33.9626 32.076 33.5266 32.224 33.1346 32.52C32.7506 32.808 32.4106 33.196 32.1146 33.684C31.8266 34.164 31.5826 34.696 31.3826 35.28C31.1906 35.856 31.0426 36.432 30.9386 37.008C30.8346 37.584 30.7826 38.108 30.7826 38.58C30.7826 39.412 30.9466 40 31.2746 40.344C31.6026 40.688 32.0306 40.86 32.5586 40.86C32.9346 40.86 33.2866 40.792 33.6146 40.656C33.9426 40.52 34.2626 40.284 34.5746 39.948C34.8866 39.612 35.1946 39.14 35.4986 38.532H36.1106C35.7026 39.484 35.2946 40.232 34.8866 40.776C34.4866 41.312 34.0546 41.692 33.5906 41.916C33.1266 42.132 32.5946 42.24 31.9946 42.24C31.3866 42.24 30.8586 42.124 30.4106 41.892C29.9706 41.652 29.6266 41.3 29.3786 40.836C29.1386 40.364 29.0186 39.788 29.0186 39.108C29.0186 38.268 29.1186 37.46 29.3186 36.684C29.5186 35.908 29.7986 35.196 30.1586 34.548C30.5266 33.9 30.9506 33.332 31.4306 32.844C31.9106 32.356 32.4346 31.98 33.0026 31.716C33.5706 31.444 34.1586 31.308 34.7666 31.308C35.3266 31.308 35.7826 31.404 36.1346 31.596C36.4866 31.788 36.7426 32.044 36.9026 32.364C37.0706 32.676 37.1546 33.016 37.1546 33.384C37.1546 33.728 37.0826 34.072 36.9386 34.416C36.7946 34.752 36.6066 35.028 36.3746 35.244C35.9346 35.428 35.4826 35.612 35.0186 35.796C34.5546 35.98 34.0786 36.164 33.5906 36.348C33.1026 36.524 32.6106 36.696 32.1146 36.864C31.6186 37.032 31.1226 37.196 30.6266 37.356L30.6626 36.54C31.4466 36.316 32.1226 36.096 32.6906 35.88C33.2586 35.656 33.7266 35.436 34.0946 35.22C34.4706 35.004 34.7626 34.788 34.9706 34.572C35.1866 34.348 35.3386 34.124 35.4266 33.9C35.5226 33.676 35.5706 33.448 35.5706 33.216C35.5706 32.984 35.5266 32.784 35.4386 32.616C35.3506 32.448 35.2226 32.316 35.0546 32.22C34.8946 32.124 34.6906 32.076 34.4426 32.076ZM38.4152 34.98L38.0192 34.812C38.3712 33.916 38.7472 33.216 39.1472 32.712C39.5472 32.2 39.9672 31.84 40.4072 31.632C40.8472 31.424 41.2872 31.32 41.7272 31.32C41.8872 31.32 42.0392 31.332 42.1832 31.356C42.3352 31.372 42.4832 31.396 42.6272 31.428C42.7792 31.46 42.9272 31.5 43.0712 31.548L41.6192 36.276H41.5352C41.9272 35.596 42.3312 34.956 42.7472 34.356C43.1712 33.756 43.6072 33.232 44.0552 32.784C44.5032 32.336 44.9632 31.984 45.4352 31.728C45.9072 31.472 46.3832 31.344 46.8632 31.344C47.5352 31.344 47.9992 31.488 48.2552 31.776C48.5112 32.064 48.6392 32.436 48.6392 32.892C48.6392 33.148 48.5992 33.436 48.5192 33.756C48.4392 34.068 48.3232 34.424 48.1712 34.824L45.7232 41.124V40.692C45.9792 40.7 46.2712 40.648 46.5992 40.536C46.9272 40.416 47.2752 40.24 47.6432 40.008C48.0112 39.776 48.3752 39.488 48.7352 39.144L49.0712 39.48C48.4952 40.168 47.9592 40.716 47.4632 41.124C46.9752 41.532 46.5272 41.82 46.1192 41.988C45.7112 42.156 45.3232 42.24 44.9552 42.24C44.4352 42.24 44.1152 42.16 43.9952 42C43.8752 41.848 43.9032 41.548 44.0792 41.1L46.6592 34.488C46.7392 34.28 46.8032 34.092 46.8512 33.924C46.8992 33.748 46.9232 33.592 46.9232 33.456C46.9232 33.256 46.8552 33.096 46.7192 32.976C46.5912 32.848 46.3552 32.784 46.0112 32.784C45.6192 32.784 45.1832 32.948 44.7032 33.276C44.2312 33.604 43.7592 34.052 43.2872 34.62C42.8152 35.188 42.3792 35.832 41.9792 36.552C41.5872 37.272 41.2712 38.028 41.0312 38.82L40.0352 42H38.3792L41.1752 32.892C41.1512 32.876 41.1232 32.864 41.0912 32.856C41.0672 32.84 41.0352 32.832 40.9952 32.832C40.7232 32.832 40.4472 32.892 40.1672 33.012C39.8952 33.132 39.6152 33.348 39.3272 33.66C39.0392 33.972 38.7352 34.412 38.4152 34.98ZM51.1873 32.472L51.4033 31.548H57.3793L57.1993 32.472H51.1873ZM52.8073 39.432C52.7753 39.56 52.7433 39.676 52.7113 39.78C52.6873 39.884 52.6673 39.976 52.6513 40.056C52.6433 40.136 52.6393 40.208 52.6393 40.272C52.6393 40.4 52.6673 40.496 52.7233 40.56C52.7793 40.624 52.8513 40.656 52.9393 40.656C53.1073 40.656 53.3393 40.56 53.6353 40.368C53.9313 40.176 54.2633 39.904 54.6313 39.552C55.0073 39.192 55.3873 38.756 55.7713 38.244L56.2153 38.532C55.8393 39.108 55.4673 39.624 55.0993 40.08C54.7393 40.528 54.3873 40.912 54.0433 41.232C53.7073 41.552 53.3793 41.796 53.0593 41.964C52.7393 42.132 52.4353 42.216 52.1473 42.216C51.8033 42.216 51.5233 42.116 51.3073 41.916C51.0993 41.716 50.9953 41.372 50.9953 40.884C50.9953 40.676 51.0153 40.432 51.0553 40.152C51.1033 39.864 51.1833 39.524 51.2953 39.132L54.0793 29.364H55.7353L52.8073 39.432ZM62.7981 41.436L64.0701 37.5H64.3701C63.7541 38.412 63.1981 39.172 62.7021 39.78C62.2141 40.388 61.7701 40.872 61.3701 41.232C60.9701 41.584 60.5981 41.836 60.2541 41.988C59.9181 42.132 59.5941 42.204 59.2821 42.204C58.8501 42.204 58.4741 42.124 58.1541 41.964C57.8341 41.804 57.5861 41.552 57.4101 41.208C57.2341 40.856 57.1461 40.404 57.1461 39.852C57.1461 39.228 57.2661 38.54 57.5061 37.788C57.7461 37.036 58.0781 36.292 58.5021 35.556C58.9261 34.82 59.4221 34.144 59.9901 33.528C60.5581 32.912 61.1741 32.42 61.8381 32.052C62.5021 31.676 63.1901 31.488 63.9021 31.488C64.3661 31.488 64.7541 31.576 65.0661 31.752C65.3781 31.92 65.6581 32.18 65.9061 32.532L65.4741 33.144C65.3941 32.928 65.2421 32.744 65.0181 32.592C64.7941 32.432 64.5101 32.352 64.1661 32.352C63.5981 32.352 63.0541 32.536 62.5341 32.904C62.0221 33.264 61.5461 33.736 61.1061 34.32C60.6741 34.904 60.2941 35.532 59.9661 36.204C59.6461 36.868 59.3981 37.512 59.2221 38.136C59.0461 38.752 58.9581 39.272 58.9581 39.696C58.9581 40.056 59.0541 40.324 59.2461 40.5C59.4461 40.668 59.6941 40.752 59.9901 40.752C60.2541 40.752 60.5821 40.644 60.9741 40.428C61.3741 40.204 61.7901 39.892 62.2221 39.492C62.6541 39.092 63.0621 38.612 63.4461 38.052C63.8381 37.492 64.1581 36.88 64.4061 36.216L65.8701 31.68L67.2141 31.548H67.5861L64.4901 41.124L64.2861 40.68C64.5421 40.72 64.8421 40.688 65.1861 40.584C65.5301 40.48 65.8941 40.304 66.2781 40.056C66.6621 39.808 67.0421 39.504 67.4181 39.144L67.7301 39.492C66.8581 40.516 66.0981 41.232 65.4501 41.64C64.8021 42.04 64.2101 42.24 63.6741 42.24C63.3221 42.24 63.0661 42.164 62.9061 42.012C62.7541 41.868 62.7181 41.676 62.7981 41.436ZM72.9686 26.736C72.8246 26.608 72.6806 26.488 72.5366 26.376C72.3926 26.264 72.2366 26.16 72.0686 26.064C71.9006 25.968 71.7006 25.876 71.4686 25.788L71.5526 25.512L74.9006 24.888H75.1526L70.2566 41.016L70.1006 40.668C70.3486 40.708 70.6406 40.68 70.9766 40.584C71.3206 40.48 71.6846 40.308 72.0686 40.068C72.4606 39.82 72.8566 39.512 73.2566 39.144L73.5686 39.492C72.9926 40.18 72.4606 40.728 71.9726 41.136C71.4926 41.536 71.0486 41.82 70.6406 41.988C70.2406 42.156 69.8606 42.24 69.5006 42.24C69.1166 42.24 68.8326 42.18 68.6486 42.06C68.4646 41.948 68.4126 41.764 68.4926 41.508L72.9686 26.736ZM92.0398 40.572L91.4158 41.052L93.9718 37.74H94.4998L93.2158 41.376C92.5598 41.64 91.7838 41.848 90.8878 42C89.9998 42.16 89.1518 42.24 88.3438 42.24C86.8398 42.24 85.5638 41.988 84.5158 41.484C83.4758 40.972 82.6838 40.244 82.1398 39.3C81.6038 38.356 81.3358 37.236 81.3358 35.94C81.3358 34.732 81.5118 33.6 81.8638 32.544C82.2238 31.488 82.7278 30.532 83.3758 29.676C84.0238 28.82 84.7918 28.084 85.6798 27.468C86.5678 26.852 87.5478 26.38 88.6198 26.052C89.6918 25.724 90.8278 25.56 92.0278 25.56C92.4438 25.56 92.8558 25.576 93.2638 25.608C93.6718 25.64 94.0758 25.696 94.4758 25.776C94.8758 25.856 95.2718 25.968 95.6638 26.112H94.9078L96.6358 25.104H96.8278L95.8558 30.696H95.3758L94.6438 27.06L95.2198 27.636C94.6358 27.22 94.0718 26.932 93.5278 26.772C92.9918 26.612 92.3478 26.532 91.5958 26.532C90.6118 26.532 89.6958 26.684 88.8478 26.988C87.9998 27.292 87.2358 27.724 86.5558 28.284C85.8838 28.844 85.3038 29.508 84.8158 30.276C84.3358 31.036 83.9678 31.872 83.7118 32.784C83.4558 33.696 83.3278 34.656 83.3278 35.664C83.3278 36.904 83.5278 37.944 83.9278 38.784C84.3358 39.616 84.9158 40.244 85.6678 40.668C86.4278 41.084 87.3358 41.292 88.3918 41.292C89.0078 41.292 89.6118 41.24 90.2038 41.136C90.8038 41.032 91.4158 40.844 92.0398 40.572ZM100.414 26.736C100.27 26.608 100.126 26.488 99.982 26.376C99.838 26.264 99.682 26.16 99.514 26.064C99.346 25.968 99.146 25.876 98.914 25.788L98.998 25.512L102.346 24.888H102.598L97.702 41.016L97.546 40.668C97.794 40.708 98.086 40.68 98.422 40.584C98.766 40.48 99.13 40.308 99.514 40.068C99.906 39.82 100.302 39.512 100.702 39.144L101.014 39.492C100.438 40.18 99.906 40.728 99.418 41.136C98.938 41.536 98.494 41.82 98.086 41.988C97.686 42.156 97.306 42.24 96.946 42.24C96.562 42.24 96.278 42.18 96.094 42.06C95.91 41.948 95.858 41.764 95.938 41.508L100.414 26.736ZM102.264 41.508L105.456 32.64L105.792 32.904C105.544 32.896 105.252 32.96 104.916 33.096C104.58 33.224 104.228 33.424 103.86 33.696C103.492 33.96 103.128 34.292 102.768 34.692L102.432 34.38C103 33.572 103.52 32.948 103.992 32.508C104.464 32.06 104.904 31.748 105.312 31.572C105.72 31.396 106.108 31.308 106.476 31.308C106.804 31.308 107.04 31.372 107.184 31.5C107.328 31.628 107.36 31.808 107.28 32.04L104.088 41.124L103.872 40.668C104.128 40.708 104.424 40.68 104.76 40.584C105.096 40.48 105.456 40.308 105.84 40.068C106.232 39.828 106.632 39.52 107.04 39.144L107.352 39.492C106.776 40.18 106.244 40.728 105.756 41.136C105.276 41.536 104.832 41.82 104.424 41.988C104.016 42.156 103.632 42.24 103.272 42.24C102.824 42.24 102.52 42.176 102.36 42.048C102.208 41.928 102.176 41.748 102.264 41.508ZM106.344 26.34C106.344 26.084 106.4 25.856 106.512 25.656C106.632 25.448 106.796 25.284 107.004 25.164C107.212 25.044 107.452 24.984 107.724 24.984C108.14 24.984 108.472 25.116 108.72 25.38C108.976 25.636 109.104 25.956 109.104 26.34C109.104 26.604 109.044 26.84 108.924 27.048C108.812 27.248 108.652 27.412 108.444 27.54C108.244 27.66 108.004 27.72 107.724 27.72C107.316 27.72 106.984 27.588 106.728 27.324C106.472 27.06 106.344 26.732 106.344 26.34ZM109.056 34.98L108.66 34.812C109.012 33.916 109.388 33.216 109.788 32.712C110.188 32.2 110.608 31.84 111.048 31.632C111.488 31.424 111.928 31.32 112.368 31.32C112.528 31.32 112.68 31.332 112.824 31.356C112.976 31.372 113.124 31.396 113.268 31.428C113.42 31.46 113.568 31.5 113.712 31.548L112.26 36.276H112.176C112.568 35.596 112.972 34.956 113.388 34.356C113.812 33.756 114.248 33.232 114.696 32.784C115.144 32.336 115.604 31.984 116.076 31.728C116.548 31.472 117.024 31.344 117.504 31.344C118.176 31.344 118.64 31.488 118.896 31.776C119.152 32.064 119.28 32.436 119.28 32.892C119.28 33.148 119.24 33.436 119.16 33.756C119.08 34.068 118.964 34.424 118.812 34.824L116.364 41.124V40.692C116.62 40.7 116.912 40.648 117.24 40.536C117.568 40.416 117.916 40.24 118.284 40.008C118.652 39.776 119.016 39.488 119.376 39.144L119.712 39.48C119.136 40.168 118.6 40.716 118.104 41.124C117.616 41.532 117.168 41.82 116.76 41.988C116.352 42.156 115.964 42.24 115.596 42.24C115.076 42.24 114.756 42.16 114.636 42C114.516 41.848 114.544 41.548 114.72 41.1L117.3 34.488C117.38 34.28 117.444 34.092 117.492 33.924C117.54 33.748 117.564 33.592 117.564 33.456C117.564 33.256 117.496 33.096 117.36 32.976C117.232 32.848 116.996 32.784 116.652 32.784C116.26 32.784 115.824 32.948 115.344 33.276C114.872 33.604 114.4 34.052 113.928 34.62C113.456 35.188 113.02 35.832 112.62 36.552C112.228 37.272 111.912 38.028 111.672 38.82L110.676 42H109.02L111.816 32.892C111.792 32.876 111.764 32.864 111.732 32.856C111.708 32.84 111.676 32.832 111.636 32.832C111.364 32.832 111.088 32.892 110.808 33.012C110.536 33.132 110.256 33.348 109.968 33.66C109.68 33.972 109.376 34.412 109.056 34.98ZM121.084 41.508L124.276 32.64L124.612 32.904C124.364 32.896 124.072 32.96 123.736 33.096C123.4 33.224 123.048 33.424 122.68 33.696C122.312 33.96 121.948 34.292 121.588 34.692L121.252 34.38C121.82 33.572 122.34 32.948 122.812 32.508C123.284 32.06 123.724 31.748 124.132 31.572C124.54 31.396 124.928 31.308 125.296 31.308C125.624 31.308 125.86 31.372 126.004 31.5C126.148 31.628 126.18 31.808 126.1 32.04L122.908 41.124L122.692 40.668C122.948 40.708 123.244 40.68 123.58 40.584C123.916 40.48 124.276 40.308 124.66 40.068C125.052 39.828 125.452 39.52 125.86 39.144L126.172 39.492C125.596 40.18 125.064 40.728 124.576 41.136C124.096 41.536 123.652 41.82 123.244 41.988C122.836 42.156 122.452 42.24 122.092 42.24C121.644 42.24 121.34 42.176 121.18 42.048C121.028 41.928 120.996 41.748 121.084 41.508ZM125.164 26.34C125.164 26.084 125.22 25.856 125.332 25.656C125.452 25.448 125.616 25.284 125.824 25.164C126.032 25.044 126.272 24.984 126.544 24.984C126.96 24.984 127.292 25.116 127.54 25.38C127.796 25.636 127.924 25.956 127.924 26.34C127.924 26.604 127.864 26.84 127.744 27.048C127.632 27.248 127.472 27.412 127.264 27.54C127.064 27.66 126.824 27.72 126.544 27.72C126.136 27.72 125.804 27.588 125.548 27.324C125.292 27.06 125.164 26.732 125.164 26.34ZM132.484 32.184C132.02 32.184 131.588 32.38 131.188 32.772C130.796 33.164 130.452 33.68 130.156 34.32C129.86 34.952 129.632 35.644 129.472 36.396C129.312 37.14 129.232 37.868 129.232 38.58C129.232 39.412 129.36 40 129.616 40.344C129.872 40.688 130.26 40.86 130.78 40.86C131.124 40.86 131.456 40.788 131.776 40.644C132.104 40.5 132.432 40.26 132.76 39.924C133.088 39.58 133.408 39.116 133.72 38.532H134.308C133.884 39.484 133.46 40.232 133.036 40.776C132.62 41.312 132.184 41.692 131.728 41.916C131.272 42.132 130.772 42.24 130.228 42.24C129.348 42.24 128.664 41.984 128.176 41.472C127.696 40.952 127.456 40.164 127.456 39.108C127.456 38.044 127.612 37.04 127.924 36.096C128.244 35.152 128.676 34.324 129.22 33.612C129.772 32.892 130.408 32.328 131.128 31.92C131.848 31.512 132.604 31.308 133.396 31.308C134.116 31.308 134.652 31.464 135.004 31.776C135.356 32.08 135.532 32.436 135.532 32.844C135.532 33.164 135.436 33.408 135.244 33.576C135.06 33.744 134.816 33.832 134.512 33.84C134.368 33.848 134.224 33.768 134.08 33.6C133.936 33.432 133.792 33.232 133.648 33C133.512 32.776 133.348 32.584 133.156 32.424C132.964 32.264 132.74 32.184 132.484 32.184Z" fill="black"/>
    <path fill-rule="evenodd" clip-rule="evenodd" d="M154.384 1.5707C156.856 1.27697 158.838 1.94739 161.169 2.68026C162.387 3.06305 163.539 3.3872 164.827 3.44526C165.63 3.48145 166.447 3.48434 167.247 3.37381C168.171 3.23285 169.149 2.88798 170.035 2.6287C170.5 2.4927 171.516 2.20325 171.972 2.11501C173.815 1.75797 175.921 1.83305 177.673 2.52399C178.3 2.77124 179.081 3.33467 179.605 3.71381C183.199 6.94104 182.86 12.4657 180.899 16.3115C180.595 16.8819 178.867 19.066 178.041 20.0868C177.862 20.1684 177.722 19.9409 177.661 19.8054C178.208 19.1288 178.924 18.111 179.525 16.973C180.168 15.7561 180.681 14.3966 180.71 13.1672C180.956 11.5622 180.923 9.70868 180.178 8.25713C179.571 7.07278 178.562 6.00124 177.354 5.37701C176.713 5.04589 175.799 4.87573 175.088 4.73292C172.13 4.1361 169.174 5.26224 166.203 5.09263C165.344 5.04363 163.944 4.89735 163.132 4.63067C162.78 4.53359 162.414 4.40781 162.065 4.30176C161.732 4.12637 161.258 4.02032 160.908 3.8523C159.206 3.03565 157.523 2.35337 155.563 2.39623C153.7 2.50451 152.194 3.55034 151.018 4.89341C149.373 6.77292 148.743 9.56105 148.863 11.9705C149.001 13.7845 149.863 16.1069 150.576 17.7862C150.853 18.4384 151.162 19.2608 151.466 19.8915L151.505 19.8614C151.569 19.7343 151.538 19.0389 151.537 18.8539C151.519 18.3844 151.509 17.9146 151.506 17.4448C151.445 16.9129 151.434 16.1437 151.416 15.5993C151.379 14.636 151.353 13.6722 151.338 12.7084C151.321 11.866 151.283 11.0239 151.226 10.1831C151.889 10.1409 152.596 10.1278 153.268 10.1349C154.812 10.1511 156.381 10.1134 157.924 10.1952C158.177 10.2087 158.592 10.4026 158.847 10.3562C158.867 10.2944 158.747 10.0037 158.724 9.92333C158.429 8.91864 157.932 7.986 157.558 7.01523C157.336 6.43903 157.108 5.93036 156.863 5.36733C157.14 5.3483 159.28 5.34045 159.379 5.39637C159.458 5.44143 159.522 5.57872 159.558 5.65858C159.67 5.90703 159.74 6.17794 159.838 6.4322C160.111 7.13354 160.388 7.8481 160.687 8.53888C160.84 8.98396 161.073 9.4496 161.247 9.89148L162.626 13.3525C162.868 13.9454 163.234 15.0673 163.503 15.5678C163.554 15.7669 163.823 16.3936 163.911 16.6106L164.681 18.5324L165.778 21.2995C165.922 21.6696 166.271 22.6351 166.451 22.939C166.502 22.8566 166.547 22.7815 166.606 22.7038L167.304 20.7668L166.931 20.3457C166.754 20.1127 166.457 19.4699 166.406 19.3224C166.354 19.175 166.205 18.9024 166.102 18.5098C165.998 18.1173 165.838 15.9256 166.476 14.9089C167.114 13.8922 169.046 12.4157 170.913 12.1282C171.042 12.1082 171.578 12.0505 171.615 11.9945C171.805 11.7026 172.015 11.1394 172.164 10.827C172.475 10.1917 172.756 9.53691 173.062 8.90052C173.419 8.15525 173.802 7.43075 174.093 6.6564C174.114 6.59939 174.224 6.37647 174.228 6.35125C174.302 5.88536 174.907 5.93158 174.799 6.37905C174.718 6.50575 173.752 8.52279 173.741 8.53167C173.543 8.89084 173.335 9.36533 173.171 9.74031L173.17 9.74119C172.998 10.1351 172.189 11.6447 172.168 11.9762C172.304 12.0258 172.904 12.03 173.275 12.0802C173.646 12.1303 174.374 12.3212 174.976 12.4987C175.742 12.724 176.691 13.3713 177.518 12.9282C177.736 12.8114 177.976 12.502 178.261 12.473L178.336 12.4988C178.387 12.6259 178.152 13.4094 178.11 13.6142C177.874 14.7605 177.674 15.9147 177.523 17.0729C177.51 17.1751 177.083 17.1779 177.009 17.1856L176.868 14.6817L176.867 14.6761L176.863 14.6719L176.821 14.6261C175.52 13.2487 173.343 12.9418 172.709 12.936C172.076 12.9301 171.915 13.0166 171.562 13.0797L171.124 14.1684C170.778 14.8994 169.925 16.7105 169.708 17.0698C169.492 17.4289 169.395 17.6106 169.319 17.8561L169.329 17.8892C169.509 18.4561 170.185 19.2009 170.558 19.6814C170.896 20.1181 171.243 20.6168 171.615 21.0199C174.585 24.2383 177.816 27.3559 178.359 31.8477C178.845 35.872 177.346 40.1961 174.466 43.1943C173.919 43.8802 172.495 45.4531 171.18 46.2574C170.654 46.4903 169.878 46.6275 169.356 46.3296C169.209 46.2458 169.076 46.0626 169.066 45.8449C169.055 45.6273 169.068 45.4773 169.182 45.3233C169.295 45.1694 169.433 45.0713 169.605 45.0353C169.777 44.9992 170.085 43.7958 170.152 43.5595C170.219 43.3233 170.381 42.6412 170.405 42.4135C170.469 42.2485 170.523 41.7252 170.551 41.5367C170.886 39.2509 170.565 36.9113 170.016 34.6782C169.828 33.9124 169.626 33.1585 169.279 32.4425C169.129 32.0525 168.483 30.6855 168.26 30.3893C168.258 30.3796 168.256 30.3698 168.254 30.3603C167.711 29.3884 166.796 28.2675 165.791 27.726C165.339 27.4829 164.773 27.5207 164.386 27.6438C163.546 27.9104 162.927 28.6248 162.414 29.2704C162.164 29.5866 161.95 29.8445 161.755 30.1993C161.431 30.6387 161.196 31.3001 160.917 31.7439L160.903 31.7835C160.786 32.1146 160.617 32.4492 160.492 32.7844C160.325 33.2302 160.122 33.6845 159.99 34.1439C159.011 37.5561 158.661 41.3925 160.017 44.759C160.071 44.8929 160.234 45.3072 160.12 45.417L160.079 45.4258C159.841 45.3634 159.503 45.3195 159.243 45.2572C158.782 45.147 158.488 45.0043 158.076 44.804L158.059 44.7959C158.053 44.7897 157.77 44.5825 157.74 44.5619C157.355 44.2945 156.929 43.7071 156.542 43.4979C156.077 43.0788 155.73 42.5569 155.418 42.023C155.142 41.6796 154.977 41.4452 154.911 41.0156C154.67 40.5883 154.369 40.2124 154.188 39.7574C153.98 39.2362 153.895 38.7323 153.63 38.2267C153.491 38.0913 153.122 36.6022 153.065 36.324C152.972 36.1278 152.781 35.1026 152.705 34.7389L152.691 34.6754C152.444 33.9357 152.325 32.7176 152.219 31.9352C152.064 30.6894 151.929 29.4414 151.816 28.1915L151.808 28.0977C151.666 26.4603 151.519 24.7655 151.062 23.1801C150.892 22.5926 150.629 21.9615 150.455 21.3618C150.288 20.7868 149.928 20.1628 149.715 19.5976C149.473 18.9537 149.178 18.354 148.866 17.7397C148.652 17.3183 148.507 16.7984 148.329 16.3576C147.571 14.4795 147.248 12.4387 147.38 10.4312C147.402 10.0889 147.483 9.73657 147.522 9.3945C147.688 7.93219 148.205 6.56042 148.956 5.28057C149.108 5.0213 149.434 4.60381 149.622 4.35069C149.787 4.19318 149.963 3.93427 150.144 3.75393C151.181 2.71864 152.762 1.7855 154.266 1.58548L154.384 1.5707ZM153.465 14.5737C153.393 14.6368 153.388 14.8227 153.384 14.9494C153.384 14.9696 153.383 14.9883 153.382 15.0048L153.379 15.0849C153.383 15.2988 153.4 15.5076 153.416 15.716C153.43 15.8954 153.445 16.0745 153.451 16.256L153.543 20.2C153.551 20.4934 153.563 20.7912 153.575 21.0903C153.599 21.6679 153.623 22.2506 153.615 22.8174C153.631 22.9356 153.638 23.054 153.637 23.1732C153.633 23.7634 153.657 24.3549 153.682 24.9466C153.712 25.6843 153.743 26.4223 153.718 27.1578C153.411 27.118 153.116 27.1186 152.811 27.1192C152.761 27.1193 152.712 27.1193 152.662 27.1192C152.675 27.5065 152.693 27.8989 152.711 28.292C152.734 28.7703 152.756 29.2497 152.769 29.7224C152.772 29.8432 152.791 30.0505 152.812 30.2804C152.85 30.6931 152.894 31.1789 152.866 31.3687L152.871 31.3928C152.911 31.6175 152.929 31.8719 152.948 32.1154C152.953 32.1882 152.958 32.2602 152.964 32.3301C153.271 36.014 154.212 40.0086 156.589 43.0058C157.014 43.5422 157.419 44.0057 158.007 44.3913C158.288 44.5756 159.297 45.0842 159.616 44.936C159.635 44.8906 159.552 44.6455 159.486 44.4528C159.454 44.3584 159.426 44.2766 159.417 44.2368C159.376 44.0658 159.333 43.894 159.29 43.7219C159.131 43.0872 158.971 42.4457 158.899 41.8021C158.579 39.0348 158.858 36.2344 159.721 33.5744C159.774 33.4075 160.088 32.439 160.166 32.273L160.172 32.2595C160.203 32.1722 160.252 32.0808 160.302 31.989C160.343 31.9132 160.385 31.8372 160.415 31.7629C160.87 30.6622 161.507 29.6307 162.23 28.6723C162.448 28.4125 162.984 27.8344 163.382 27.6009C163.468 27.5515 163.545 27.5052 163.618 27.4613C163.84 27.3276 164.023 27.2169 164.319 27.1147C165.075 26.9443 165.72 26.8877 166.421 27.3359C168.524 28.6816 170.036 32.3204 170.579 34.5728C170.993 36.288 171.3 38.7721 171.163 40.4956C171.097 41.3097 170.916 42.2674 170.76 43.0959L170.746 43.1674C170.738 43.2074 170.731 43.2471 170.724 43.2863C170.7 43.4108 170.625 43.6463 170.544 43.903C170.404 44.3437 170.244 44.8468 170.291 44.9569C170.544 45.0534 171.093 44.9622 171.346 44.8584C173.455 43.9901 174.673 41.9035 175.429 39.9409C176.425 37.353 176.486 34.2988 175.705 31.6545C175.633 31.409 175.523 31.1745 175.415 30.9409C175.331 30.7616 175.248 30.5828 175.182 30.4001C174.746 29.34 173.837 28.0694 173.436 27.5666V27.5645C173.055 27.0893 172.64 26.6436 172.226 26.199L172.225 26.1981C172.123 26.0877 172.02 25.9773 171.918 25.8666C171.274 25.1562 170.616 24.458 169.943 23.7728C169.916 23.7021 169.692 23.4594 169.503 23.2608L169.334 23.085C169.302 23.0521 169.276 23.0251 169.258 23.0067C169.067 22.8056 168.883 22.5879 168.701 22.3668L168.52 22.1451C168.301 21.876 168.083 21.6084 167.858 21.366C167.849 21.353 167.839 21.3394 167.829 21.3256C167.793 21.2764 167.755 21.2239 167.718 21.1812C167.568 21.4596 165.997 24.8067 165.99 24.8668C165.984 24.8756 165.979 24.8848 165.973 24.8941C165.967 24.9042 165.96 24.9148 165.954 24.9254L165.941 24.9464L165.94 24.9471C165.799 25.173 165.592 25.5048 165.549 25.7219C165.539 25.7718 165.531 25.8106 165.523 25.843C165.495 25.9693 165.489 25.9973 165.522 26.2011C165.952 26.4508 166.226 26.5198 166.678 26.6337L166.679 26.6341C166.712 26.6424 166.747 26.6511 166.782 26.6601C166.775 26.6715 166.768 26.6837 166.76 26.6962C166.726 26.7541 166.687 26.8177 166.632 26.8405C166.489 26.8336 166.349 26.8202 166.208 26.8028C165.99 26.7761 165.77 26.759 165.551 26.7419C165.068 26.7044 164.587 26.6669 164.121 26.5269C163.982 26.4794 163.826 26.4137 163.67 26.3476C163.543 26.2939 163.415 26.2398 163.294 26.195C163.026 26.0867 162.793 25.9175 162.709 25.8464C161.205 24.7019 160.858 22.9518 160.548 21.3817C160.278 20.0187 160.035 18.7911 159.085 18.2126C158.659 17.9666 158.531 17.9254 158.041 17.8457C157.95 17.8355 157.86 17.8259 157.771 17.8163C157.248 17.7605 156.738 17.7062 156.22 17.5544C155.501 17.3436 154.612 16.5747 154.223 15.9667C154.125 15.8118 154.007 15.552 153.893 15.3003C153.81 15.1176 153.729 14.939 153.658 14.8079C153.592 14.7571 153.569 14.7179 153.547 14.6789C153.528 14.646 153.51 14.6132 153.465 14.5737ZM161.251 16.431C160.484 17.2304 159.888 17.3678 158.954 17.5836L158.953 17.5838H158.953C158.822 17.614 158.684 17.6458 158.539 17.6811C158.612 17.7045 158.683 17.727 158.753 17.7489C159.25 17.9051 159.671 18.0375 160.149 18.3244C161.142 18.9208 161.901 20.2644 162.405 21.2464C162.613 21.651 162.811 22.0732 163.011 22.4986C163.401 23.3293 163.797 24.1724 164.28 24.9207C164.374 25.067 164.771 25.6513 165.037 25.7791L165.06 25.7642C165.025 25.5531 164.844 25.1618 164.701 24.854L164.701 24.8536L164.692 24.8346C164.648 24.7398 164.608 24.6535 164.578 24.584L164.196 23.5345C164.075 23.1875 163.627 22.0529 163.517 21.8076C163.47 21.7134 163.374 21.459 163.29 21.2365C163.242 21.1069 163.197 20.988 163.169 20.9182C163.027 20.4348 162.632 19.509 162.413 19.0492C162.197 18.4934 161.982 17.9447 161.741 17.3982C161.692 17.2861 161.656 17.1832 161.622 17.086C161.541 16.8534 161.471 16.6523 161.251 16.431ZM154.542 10.3696C154.139 10.3657 153.736 10.3618 153.327 10.3731C153.273 10.9181 153.303 11.3932 153.335 11.9147C153.34 11.992 153.345 12.0704 153.35 12.15C153.437 13.6351 153.739 14.9728 154.747 16.1489C155.37 16.8519 156.075 17.4415 157.083 17.4928C157.905 17.5348 158.58 17.4715 159.227 16.9396C160.27 16.0814 160.461 14.4796 160.09 13.2702C159.987 12.8454 159.576 11.7703 159.247 11.4732C159.062 11.1817 158.724 11.0065 158.422 10.8499L158.418 10.8479L158.414 10.8458L158.413 10.8457C158.234 10.7609 158.081 10.6884 157.883 10.6514C157.07 10.4319 156.459 10.3788 155.676 10.373H154.934C154.803 10.3722 154.673 10.3709 154.542 10.3696ZM171.052 13.1068C170.233 13.0239 169.418 13.9573 169.113 14.4343C168.57 15.2797 168.72 16.4962 169.067 17.3846C169.333 16.9699 169.541 16.4885 169.744 16.0199C169.831 15.8198 169.917 15.6219 170.005 15.4326L170.026 15.3883L170.027 15.3867C170.217 14.9802 170.403 14.5835 170.62 14.1879L170.62 14.1877C170.721 14.0174 171.183 13.2357 171.052 13.1068Z" fill="#080808"/>
</svg>
